<?xml version="1.0" encoding="utf-8"?>
<!-- Generator: Adobe Illustrator 22.1.0, SVG Export Plug-In . SVG Version: 6.00 Build 0)  -->
<svg version="1.1" id="Layer_1" xmlns="http://www.w3.org/2000/svg" xmlns:xlink="http://www.w3.org/1999/xlink" x="0px" y="0px"
	 viewBox="0 0 120 120" style="enable-background:new 0 0 120 120;" xml:space="preserve">
<style type="text/css">
	.st0{fill-rule:evenodd;clip-rule:evenodd;fill:#181616;}
</style>
<path class="st0" d="M60,15.2c-25.4,0-45.9,20.6-45.9,45.9c0,20.3,13.2,37.5,31.4,43.6c2.3,0.4,3.1-1,3.1-2.2c0-1.1,0-4-0.1-7.8
	c-12.8,2.8-15.5-6.2-15.5-6.2C31,83.2,28,81.8,28,81.8C23.8,79,28.3,79,28.3,79c4.6,0.3,7,4.7,7,4.7c4.1,7,10.7,5,13.4,3.8
	c0.4-3,1.6-5,2.9-6.1c-10.2-1.2-20.9-5.1-20.9-22.7c0-5,1.8-9.1,4.7-12.3c-0.5-1.2-2-5.8,0.5-12.2c0,0,3.9-1.2,12.6,4.7
	c3.7-1,7.6-1.5,11.5-1.5c3.9,0,7.8,0.5,11.5,1.5c8.8-5.9,12.6-4.7,12.6-4.7c2.5,6.3,0.9,11,0.5,12.2c2.9,3.2,4.7,7.3,4.7,12.3
	c0,17.6-10.7,21.5-21,22.7c1.6,1.4,3.1,4.2,3.1,8.5c0,6.1-0.1,11.1-0.1,12.6c0,1.2,0.8,2.7,3.2,2.2c18.2-6.1,31.4-23.3,31.4-43.6
	C105.9,35.8,85.4,15.2,60,15.2z"/>
</svg>
