<?xml version="1.0" encoding="utf-8"?>
<!-- Generator: Adobe Illustrator 22.1.0, SVG Export Plug-In . SVG Version: 6.00 Build 0)  -->
<svg version="1.1" id="Layer_1" xmlns="http://www.w3.org/2000/svg" xmlns:xlink="http://www.w3.org/1999/xlink" x="0px" y="0px"
	 viewBox="0 0 120 120" style="enable-background:new 0 0 120 120;" xml:space="preserve">
<style type="text/css">
	.st0{fill:#5FCF80;}
</style>
<g>
	<path class="st0" d="M90.4,32.6c-2.9-1.6-7.4,1-10.2,5.8l-5,8.7c-1.8,3.6-1.6,8,0.7,11.3l0.1,0.2c2.3,3.3,5.5,6.4,6.5,7.5
		c0.6,0.6,1.1,1.4,1.3,2.4c0.8,3-0.9,6.2-4,7c-3,0.8-6.2-0.9-7-4c-0.2-0.8-0.3-1.5-0.2-2.3c0.2-1.3-0.2-3.3-2-5.3
		c-1.8-2-5.5,1.8-6.7,5.7L64,69.9c-1.2,3.9-1.9,7.3-1.7,7.6c0.1,0.2,0.3,0.4,0.4,0.6c1.7,3.1,0.5,7-2.7,8.7c-3.1,1.7-7,0.5-8.7-2.7
		c-1.7-3.1-0.5-7,2.7-8.7c0.1-0.1,0.3-0.1,0.4-0.2c0.2-0.1,0.9-1.7,1.5-3.7c0.6-1.9,0.8-2.6,1.1-3.5c0.3-1.2,0.7-3.7,0.5-4.9
		c-0.2-1.4-1.6-1.5-3.1-0.4c-0.9,0.6-2.3,1.9-3,2.4c-1.3,1-2.4,2.8-3,3.9c-0.3,0.7-0.8,1.3-1.5,1.8c-2.4,2-6,1.6-8-0.8
		c-2-2.4-1.6-6,0.8-8c0.7-0.6,1.5-1,2.4-1.1c1.4-0.3,6.3-3.3,9.2-5.4c0.5-0.4,1.4-1,1.7-1.4c0.9-1.1-0.1-2-0.9-1.9
		c-2.5,0.3-5.1,0.6-5.5,1.2c-0.3,0.4-0.6,0.7-1,1c-2.3,1.6-5.4,1.1-7.1-1.2c-1.6-2.3-1.1-5.4,1.2-7.1c0.9-0.7,2-1,3.1-1
		c1.8,0.1,6.6,1,10.6,0.3l1-0.2c4-0.7,8.8-4.2,10.7-7.8c0,0,1.9-3.3,4.2-7.3c2.3-4.1,2.1-8.5-0.4-9.9l-4.6-2.6
		c-2.3-1.3-6.1-1.3-8.4,0L24.4,35.5c-2.3,1.3-4.2,4.5-4.2,7.2v34.6c0,2.6,1.9,5.9,4.2,7.2l31.4,17.7c2.3,1.3,6.1,1.3,8.4,0
		l31.3-17.7c2.3-1.3,4.2-4.5,4.2-7.2V42.7c0-2.6-1.9-5.9-4.2-7.2C95.6,35.5,93.3,34.2,90.4,32.6z"/>
</g>
</svg>
